<?xml version="1.0" encoding="UTF-8" standalone="no"?>
<!DOCTYPE svg PUBLIC "-//W3C//DTD SVG 1.1//EN" "http://www.w3.org/Graphics/SVG/1.1/DTD/svg11.dtd">
<svg width="100%" height="100%" viewBox="0 0 3940 1185" version="1.1" xmlns="http://www.w3.org/2000/svg" xmlns:xlink="http://www.w3.org/1999/xlink" xml:space="preserve" xmlns:serif="http://www.serif.com/" style="fill-rule:evenodd;clip-rule:evenodd;stroke-linecap:round;stroke-linejoin:round;stroke-miterlimit:1.5;">
    <g transform="matrix(1,0,0,1,-11.4167,-12.4167)">
        <g transform="matrix(1.015,0,0,1.03082,-36.2716,-15.3018)">
            <path d="M3913.57,209.107C3913.57,116.347 3837.08,41.037 3742.88,41.037L232.041,41.037C137.835,41.037 61.351,116.347 61.351,209.107L61.351,993.435C61.351,1086.19 137.835,1161.51 232.041,1161.51L3742.88,1161.51C3837.08,1161.51 3913.57,1086.19 3913.57,993.435L3913.57,209.107Z" style="fill:rgb(119,11,141);stroke:rgb(119,11,141);stroke-width:28.51px;"/>
        </g>
        <g id="download-to-storage-drive" transform="matrix(1.56009,0,0,1.56009,651.297,604.5)">
            <g transform="matrix(1,0,0,1,-237.539,-237.538)">
                <clipPath id="_clip1">
                    <rect x="0" y="0" width="475.078" height="475.077"/>
                </clipPath>
                <g clip-path="url(#_clip1)">
                    <g>
                        <g>
                            <path d="M467.083,318.627C461.759,313.299 455.283,310.633 447.673,310.633L315.195,310.633L276.367,349.46C265.327,360.117 252.385,365.448 237.539,365.448C222.696,365.448 209.75,360.124 198.711,349.46L160.168,310.633L27.408,310.633C19.796,310.633 13.325,313.302 7.994,318.627C2.664,323.955 0,330.427 0,338.044L0,429.402C0,437.016 2.664,443.487 7.994,448.816C13.324,454.144 19.795,456.806 27.408,456.806L447.674,456.806C455.284,456.806 461.76,454.144 467.084,448.816C472.416,443.487 475.078,437.016 475.078,429.402L475.078,338.044C475.078,330.427 472.416,323.955 467.083,318.627ZM360.025,414.841C356.404,418.458 352.12,420.265 347.171,420.265C342.222,420.265 337.944,418.458 334.324,414.841C330.71,411.224 328.903,406.943 328.903,401.997C328.903,397.049 330.71,392.761 334.324,389.15C337.944,385.53 342.222,383.719 347.171,383.719C352.12,383.719 356.403,385.53 360.025,389.15C363.638,392.76 365.446,397.048 365.446,401.997C365.446,406.942 363.638,411.224 360.025,414.841ZM433.109,414.841C429.495,418.458 425.211,420.265 420.261,420.265C415.313,420.265 411.032,418.458 407.414,414.841C403.801,411.224 401.994,406.943 401.994,401.997C401.994,397.049 403.801,392.761 407.414,389.15C411.031,385.53 415.312,383.719 420.261,383.719C425.21,383.719 429.494,385.53 433.109,389.15C436.726,392.76 438.536,397.048 438.536,401.997C438.536,406.942 436.729,411.224 433.109,414.841Z" style="fill:white;fill-rule:nonzero;"/>
                            <path d="M224.692,323.479C228.12,327.092 232.402,328.9 237.539,328.9C242.68,328.9 246.957,327.092 250.386,323.479L378.293,195.571C384.192,190.052 385.527,183.389 382.29,175.585C379.06,168.164 373.443,164.453 365.446,164.449L292.355,164.449L292.355,36.543C292.355,31.595 290.544,27.312 286.934,23.696C283.314,20.079 279.033,18.27 274.087,18.27L200.991,18.27C196.045,18.27 191.762,20.079 188.144,23.696C184.529,27.312 182.72,31.594 182.72,36.543L182.72,164.45L109.631,164.45C101.633,164.45 96.021,168.165 92.785,175.586C89.551,183.387 90.882,190.053 96.784,195.572L224.692,323.479Z" style="fill:white;fill-rule:nonzero;"/>
                        </g>
                    </g>
                </g>
            </g>
        </g>
        <g transform="matrix(1,0,0,1,0,111.035)">
            <g transform="matrix(4.86519,0,0,4.86519,-6182.13,-2787.04)">
                <text x="1520.97px" y="726.017px" style="font-family:'ArialMT', 'Arial', sans-serif;font-size:50px;fill:white;stroke:white;stroke-width:1.71px;stroke-linecap:butt;stroke-miterlimit:2;">DESCARGA<tspan x="1798.82px 1812.72px " y="726.017px 726.017px "> D</tspan>IRECT<tspan x="1995.11px " y="726.017px ">A</tspan></text>
            </g>
            <g transform="matrix(4.73977,0,0,4.73977,-5064.74,-984.989)">
                <text x="1327.23px" y="294.621px" style="font-family:'ArialMT', 'Arial', sans-serif;font-size:50px;fill:white;">OBTENER</text>
            </g>
        </g>
    </g>
</svg>
